<svg width="800" height="800" viewBox="0 0 800 800" fill="none" xmlns="http://www.w3.org/2000/svg">
<g clip-path="url(#clip0_1_2)">
<path d="M741.267 16.6141H188.6C156.191 16.6141 133.333 39.4719 133.333 71.8813L133.222 135.947H1.90735e-06C-18.4094 135.947 0 364.87 0 383.28V683.28C0 737.809 43.6172 782.092 97.875 783.227C98.5719 783.261 99.2797 783.28 100 783.28H741.267C773.709 783.28 800 756.989 800 724.547V75.3469C800 42.9047 773.709 16.6141 741.267 16.6141ZM66.6687 208H133.222L133.334 683.281C133.334 684.033 133.27 684.767 133.222 685.505C131.875 700.509 117.23 715.156 102.225 716.502C101.486 716.55 100.752 716.614 100.002 716.614C81.5781 716.614 66.6687 701.705 66.6687 683.281V208ZM733.333 716.614H194.291C197.503 707.525 199.442 697.838 199.887 687.756C199.961 686.27 200 684.778 200 683.281V383.281V83.2813H733.333V716.614Z" fill="black"/>
<path d="M300 450H400C418.409 450 433.333 435.077 433.333 416.667C433.333 398.258 418.409 383.334 400 383.334H300C281.591 383.334 266.667 398.258 266.667 416.667C266.667 435.077 281.591 450 300 450Z" fill="black"/>
<path d="M300 550H400C418.409 550 433.333 535.077 433.333 516.667C433.333 498.258 418.409 483.334 400 483.334H300C281.591 483.334 266.667 498.258 266.667 516.667C266.667 535.077 281.591 550 300 550Z" fill="black"/>
<path d="M300 650H400C418.409 650 433.333 635.077 433.333 616.667C433.333 598.258 418.409 583.334 400 583.334H300C281.591 583.334 266.667 598.258 266.667 616.667C266.667 635.077 281.591 650 300 650Z" fill="black"/>
<path d="M633.333 383.333H533.333C514.924 383.333 500 398.256 500 416.666C500 435.075 514.924 449.998 533.333 449.998H633.333C651.742 449.998 666.666 435.075 666.666 416.666C666.667 398.258 651.742 383.333 633.333 383.333Z" fill="black"/>
<path d="M633.333 483.333H533.333C514.924 483.333 500 498.256 500 516.666C500 535.075 514.924 549.998 533.333 549.998H633.333C651.742 549.998 666.666 535.075 666.666 516.666C666.667 498.258 651.742 483.333 633.333 483.333Z" fill="black"/>
<path d="M633.333 583.333H533.333C514.924 583.333 500 598.256 500 616.666C500 635.075 514.924 649.998 533.333 649.998H633.333C651.742 649.998 666.666 635.075 666.666 616.666C666.667 598.258 651.742 583.333 633.333 583.333Z" fill="black"/>
<path d="M300 350H633.333C651.742 350 666.666 335.077 666.666 316.667V183.334C666.666 164.925 651.742 150.002 633.333 150.002H300C281.591 150.002 266.667 164.925 266.667 183.334V316.667C266.667 335.077 281.591 350 300 350ZM333.333 216.667H600V283.334H333.333V216.667Z" fill="black"/>
</g>
<defs>
<clipPath id="clip0_1_2">
<rect width="800" height="800" fill="white"/>
</clipPath>
</defs>
</svg>
